# xmcd CD database file
# Copyright (C) 1993-1998 Ti Kan
#
# Track frame offsets:
#	182
#	12722
#	23870
#	35065
#	47770
#	60237
#	72887
#	84852
#	97387
#	109282
#	121412
#	134072
#	145642
#	160027
#	171080
#	183092
#	191932
#	204692
#	216812
#	237065
#
# Disc length: 3522 seconds
#
# Revision: 1
# Processed by: cddbd v1.4b41PL1 Copyright (c) Steve Scherf et al.
# Submitted via: NotifyCDPlayer(CDDB) 1.51.2
#
DISCID=230dc014
DTITLE=Marvin Gaye - Compact Command Performances - 20 Greatest Hits
DYEAR=1900
DGENRE=
TTITLE0=Stubborn Kind Of Fellow
TTITLE1=Hitchhike
TTITLE2=Pride And Joy
TTITLE3=Can I Get A Witness
TTITLE4=You're A Wonderful One
TTITLE5=Try It Baby
TTITLE6=Baby Don't You Do It
TTITLE7=I'll Be Doggone
TTITLE8=Pretty Little Baby
TTITLE9=One More Heartache
TTITLE10=Take This Heart Of Mine
TTITLE11=Little Darling (I Need You)
TTITLE12=Your Unchanging Love
TTITLE13=You
TTITLE14=Chained
TTITLE15=How Can I Forget
TTITLE16=The End Of Our Road
TTITLE17=Come Get This
TTITLE18=After The Dance
TTITLE19=Distant Lover
EXTD=
EXTT0=
EXTT1=
EXTT2=
EXTT3=
EXTT4=
EXTT5=
EXTT6=
EXTT7=
EXTT8=
EXTT9=
EXTT10=
EXTT11=
EXTT12=
EXTT13=
EXTT14=
EXTT15=
EXTT16=
EXTT17=
EXTT18=
EXTT19=
PLAYORDER=
